<svg width="20" height="20" viewBox="0 0 20 20" fill="none" xmlns="http://www.w3.org/2000/svg">
<path d="M4 7.2C4 6.0799 4 5.51984 4.21799 5.09202C4.40973 4.71569 4.71569 4.40973 5.09202 4.21799C5.51984 4 6.0799 4 7.2 4H12.8C13.9201 4 14.4802 4 14.908 4.21799C15.2843 4.40973 15.5903 4.71569 15.782 5.09202C16 5.51984 16 6.0799 16 7.2V12.8C16 13.9201 16 14.4802 15.782 14.908C15.5903 15.2843 15.2843 15.5903 14.908 15.782C14.4802 16 13.9201 16 12.8 16H7.2C6.0799 16 5.51984 16 5.09202 15.782C4.71569 15.5903 4.40973 15.2843 4.21799 14.908C4 14.4802 4 13.9201 4 12.8V7.2Z" stroke="#C8C8C8" stroke-width="1.5" stroke-linecap="round" stroke-linejoin="round"/>
</svg>
