<svg width="12" height="12" viewBox="0 0 12 12" fill="none" xmlns="http://www.w3.org/2000/svg">
<path d="M1 3.66667C1 2.73325 1 2.26654 1.18166 1.91002C1.34144 1.59641 1.59641 1.34144 1.91002 1.18166C2.26654 1 2.73325 1 3.66667 1H8.33333C9.26675 1 9.73346 1 10.09 1.18166C10.4036 1.34144 10.6586 1.59641 10.8183 1.91002C11 2.26654 11 2.73325 11 3.66667V8.33333C11 9.26675 11 9.73346 10.8183 10.09C10.6586 10.4036 10.4036 10.6586 10.09 10.8183C9.73346 11 9.26675 11 8.33333 11H3.66667C2.73325 11 2.26654 11 1.91002 10.8183C1.59641 10.6586 1.34144 10.4036 1.18166 10.09C1 9.73346 1 9.26675 1 8.33333V3.66667Z" fill="#5C84F7" stroke="#5C84F7" stroke-width="1.5" stroke-linecap="round" stroke-linejoin="round"/>
<path d="M3.5 5.99992L5.16667 7.66659L8.5 4.33325" stroke="white" stroke-width="1.5" stroke-linecap="round" stroke-linejoin="round"/>
</svg>
