<svg width="15" height="14" viewBox="0 0 15 14" fill="none" xmlns="http://www.w3.org/2000/svg">
<path d="M6.6697 2.39488C6.93805 2.35482 7.21488 2.33333 7.5 2.33333C10.8708 2.33333 13.0827 5.33656 13.8258 6.52455C13.9157 6.66833 13.9607 6.74023 13.9858 6.85112C14.0047 6.93439 14.0047 7.06578 13.9858 7.14905C13.9606 7.25993 13.9153 7.3323 13.8248 7.47704C13.6268 7.79343 13.3249 8.23807 12.925 8.7203M4.01625 3.47669C2.58866 4.45447 1.61948 5.81292 1.17488 6.52352C1.08454 6.66791 1.03937 6.74011 1.01419 6.85099C0.995277 6.93426 0.995269 7.06563 1.01417 7.14891C1.03934 7.25979 1.08431 7.33168 1.17424 7.47545C1.91733 8.66344 4.12922 11.6667 7.5 11.6667C8.85914 11.6667 10.0299 11.1784 10.9919 10.5177M1.55739 1L13.4426 13M6.09931 5.58579C5.74085 5.94771 5.51913 6.44772 5.51913 7C5.51913 8.10457 6.406 9 7.5 9C8.047 9 8.54222 8.77614 8.90068 8.41421" stroke="#9A9A9A" stroke-width="1.5" stroke-linecap="round" stroke-linejoin="round"/>
</svg>
