<svg width="19" height="17" viewBox="0 0 19 17" fill="none" xmlns="http://www.w3.org/2000/svg">
<path d="M8.15558 2.7436C8.49425 2.69353 8.84363 2.66667 9.20347 2.66667C13.4576 2.66667 16.2492 6.4207 17.187 7.90568C17.3005 8.08542 17.3573 8.17528 17.3891 8.31389C17.4129 8.41799 17.4129 8.58222 17.389 8.68631C17.3572 8.82492 17.3001 8.91538 17.1858 9.09631C16.9359 9.49179 16.5549 10.0476 16.0502 10.6504M4.80673 4.09586C3.005 5.31808 1.78183 7.01615 1.22071 7.9044C1.1067 8.08489 1.04969 8.17514 1.01791 8.31373C0.994039 8.41783 0.99403 8.58203 1.01789 8.68613C1.04965 8.82473 1.1064 8.91459 1.2199 9.09432C2.15774 10.5793 4.9493 14.3333 9.20347 14.3333C10.9188 14.3333 12.3964 13.723 13.6105 12.8972M1.70347 1L16.7035 16M7.4357 6.73223C6.98329 7.18464 6.70347 7.80964 6.70347 8.5C6.70347 9.88071 7.82276 11 9.20347 11C9.89383 11 10.5188 10.7202 10.9712 10.2678" stroke="#9A9A9A" stroke-width="1.5" stroke-linecap="round" stroke-linejoin="round"/>
</svg>
