<svg width="15" height="12" viewBox="0 0 15 12" fill="none" xmlns="http://www.w3.org/2000/svg">
<path d="M13.675 9.75L9.35714 6M5.64286 6L1.32502 9.75M1 2.875L6.3072 6.44715C6.73696 6.73641 6.95184 6.88105 7.18557 6.93707C7.39203 6.98655 7.60797 6.98655 7.81443 6.93707C8.04816 6.88105 8.26304 6.73642 8.6928 6.44715L14 2.875M4.12 11H10.88C11.9721 11 12.5182 11 12.9353 10.7956C13.3022 10.6159 13.6005 10.329 13.7875 9.97623C14 9.57515 14 9.0501 14 8V4C14 2.9499 14 2.42485 13.7875 2.02377C13.6005 1.67096 13.3022 1.38413 12.9353 1.20436C12.5182 1 11.9721 1 10.88 1H4.12C3.0279 1 2.48185 1 2.06472 1.20436C1.6978 1.38413 1.39949 1.67096 1.21254 2.02377C1 2.42485 1 2.9499 1 4V8C1 9.0501 1 9.57515 1.21254 9.97623C1.39949 10.329 1.6978 10.6159 2.06472 10.7956C2.48185 11 3.0279 11 4.12 11Z" stroke="#5C84F7" stroke-width="1.5" stroke-linecap="round" stroke-linejoin="round"/>
</svg>
