<svg width="19" height="16" viewBox="0 0 19 16" fill="none" xmlns="http://www.w3.org/2000/svg">
<path d="M17.575 13.25L11.9286 8M7.07143 8L1.42503 13.25M1 3.625L7.94018 8.62601C8.50218 9.03098 8.78318 9.23346 9.08882 9.31189C9.35881 9.38117 9.64119 9.38117 9.91117 9.31189C10.2168 9.23346 10.4978 9.03098 11.0598 8.62601L18 3.625M5.08 15H13.92C15.3481 15 16.0622 15 16.6077 14.7139C17.0875 14.4622 17.4776 14.0607 17.7221 13.5667C18 13.0052 18 12.2701 18 10.8V5.2C18 3.72986 18 2.99479 17.7221 2.43327C17.4776 1.93935 17.0875 1.53778 16.6077 1.28611C16.0622 1 15.3481 1 13.92 1H5.08C3.65187 1 2.9378 1 2.39232 1.28611C1.91251 1.53778 1.52241 1.93935 1.27793 2.43327C1 2.99479 1 3.72986 1 5.2V10.8C1 12.2701 1 13.0052 1.27793 13.5667C1.52241 14.0607 1.91251 14.4622 2.39232 14.7139C2.9378 15 3.65187 15 5.08 15Z" stroke="#5C84F7" stroke-width="1.5" stroke-linecap="round" stroke-linejoin="round"/>
</svg>
