<svg width="32" height="32" viewBox="0 0 32 32" fill="none" xmlns="http://www.w3.org/2000/svg">
<circle cx="16" cy="16" r="14" stroke="#E6E6E6" stroke-width="4"/>
<path fill-rule="evenodd" clip-rule="evenodd" d="M7.51472 24.4853C5.34315 22.3137 4 19.3137 4 16H0C0 17.3524 0.171455 18.6963 0.508066 20C0.694424 20.7218 0.9314 21.4312 1.21793 22.1229C2.022 24.0641 3.20055 25.828 4.68629 27.3137C6.17203 28.7994 7.93586 29.978 9.87707 30.7821C11.8183 31.5861 13.8989 32 16 32C18.1012 32 20.1817 31.5861 22.1229 30.7821C24.0586 29.9803 25.8178 28.8062 27.3009 27.3265C27.3094 27.318 27.318 27.3094 27.3265 27.3009C28.8062 25.8178 29.9803 24.0586 30.7821 22.1229C31.0686 21.4312 31.3056 20.7218 31.4919 20C31.8285 18.6963 32 17.3524 32 16H28C28 19.3039 26.6648 22.296 24.5045 24.466C24.4981 24.4724 24.4917 24.4789 24.4853 24.4853C24.4767 24.4939 24.4681 24.5025 24.4595 24.511C22.29 26.6675 19.3006 28 16 28C12.6863 28 9.68629 26.6569 7.51472 24.4853Z" fill="#5C84F7"/>
</svg>
