<svg width="48" height="48" viewBox="0 0 48 48" fill="none" xmlns="http://www.w3.org/2000/svg">
<circle cx="24" cy="24" r="22" stroke="#E6E6E6" stroke-width="4"/>
<path fill-rule="evenodd" clip-rule="evenodd" d="M0 24C0 25.3435 0.112808 26.6815 0.335682 28C0.635632 29.7745 1.13493 31.5139 1.82689 33.1844C3.033 36.0962 4.80083 38.742 7.02944 40.9706C9.25805 43.1992 11.9038 44.967 14.8156 46.1731C17.7274 47.3792 20.8483 48 24 48C27.1517 48 30.2726 47.3792 33.1844 46.1731C36.0962 44.967 38.742 43.1992 40.9706 40.9706C43.1992 38.742 44.967 36.0962 46.1731 33.1844C46.8651 31.5139 47.3644 29.7745 47.6643 28C47.8872 26.6815 48 25.3435 48 24H44C44 35.0457 35.0457 44 24 44C12.9543 44 4 35.0457 4 24H0Z" fill="#5C84F7"/>
</svg>
