<svg width="15" height="12" viewBox="0 0 15 12" fill="none" xmlns="http://www.w3.org/2000/svg">
<path d="M1.17423 6.50941C1.08431 6.35539 1.03935 6.27837 1.01418 6.15958C0.995274 6.07036 0.995274 5.92964 1.01418 5.84042C1.03935 5.72163 1.08431 5.64462 1.17423 5.49059C1.91733 4.21774 4.12921 1 7.5 1C10.8708 1 13.0827 4.21774 13.8258 5.49059C13.9157 5.64462 13.9607 5.72163 13.9858 5.84042C14.0047 5.92964 14.0047 6.07036 13.9858 6.15958C13.9607 6.27837 13.9157 6.35539 13.8258 6.50941C13.0827 7.78226 10.8708 11 7.5 11C4.12921 11 1.91733 7.78226 1.17423 6.50941Z" stroke="#9A9A9A" stroke-width="1.5" stroke-linecap="round" stroke-linejoin="round"/>
<path d="M7.5 8.14286C8.594 8.14286 9.48087 7.18347 9.48087 6C9.48087 4.81653 8.594 3.85714 7.5 3.85714C6.40599 3.85714 5.51913 4.81653 5.51913 6C5.51913 7.18347 6.40599 8.14286 7.5 8.14286Z" stroke="#9A9A9A" stroke-width="1.5" stroke-linecap="round" stroke-linejoin="round"/>
</svg>
