<svg width="18" height="18" viewBox="0 0 18 18" fill="none" xmlns="http://www.w3.org/2000/svg">
<path d="M14 7.22222V5.44444C14 2.98985 11.7614 1 9 1C6.23858 1 4 2.98985 4 5.44444V7.22222M9 11.2222V13M5.8 17H12.2C13.8802 17 14.7202 17 15.362 16.7094C15.9265 16.4537 16.3854 16.0457 16.673 15.544C17 14.9735 17 14.2268 17 12.7333V11.4889C17 9.99542 17 9.24868 16.673 8.67825C16.3854 8.17648 15.9265 7.76853 15.362 7.51287C14.7202 7.22222 13.8802 7.22222 12.2 7.22222H5.8C4.11984 7.22222 3.27976 7.22222 2.63803 7.51287C2.07354 7.76853 1.6146 8.17648 1.32698 8.67825C1 9.24868 1 9.99542 1 11.4889V12.7333C1 14.2268 1 14.9735 1.32698 15.544C1.6146 16.0457 2.07354 16.4537 2.63803 16.7094C3.27976 17 4.11984 17 5.8 17Z" stroke="#5C84F7" stroke-width="1.5" stroke-linecap="round" stroke-linejoin="round"/>
</svg>
