<svg width="14" height="14" viewBox="0 0 14 14" fill="none" xmlns="http://www.w3.org/2000/svg">
<path d="M10.75 5.66667V4.33333C10.75 2.49238 9.07107 1 7 1C4.92893 1 3.25 2.49238 3.25 4.33333V5.66667M7 8.66667V10M4.6 13H9.4C10.6601 13 11.2902 13 11.7715 12.782C12.1948 12.5903 12.539 12.2843 12.7548 11.908C13 11.4802 13 10.9201 13 9.8V8.86667C13 7.74656 13 7.18651 12.7548 6.75869C12.539 6.38236 12.1948 6.0764 11.7715 5.88465C11.2902 5.66667 10.6601 5.66667 9.4 5.66667H4.6C3.33988 5.66667 2.70982 5.66667 2.22852 5.88465C1.80516 6.0764 1.46095 6.38236 1.24524 6.75869C1 7.18651 1 7.74656 1 8.86667V9.8C1 10.9201 1 11.4802 1.24524 11.908C1.46095 12.2843 1.80516 12.5903 2.22852 12.782C2.70982 13 3.33988 13 4.6 13Z" stroke="#5C84F7" stroke-width="1.5" stroke-linecap="round" stroke-linejoin="round"/>
</svg>
