<svg width="14" height="12" viewBox="0 0 14 12" fill="none" xmlns="http://www.w3.org/2000/svg">
<path d="M14 1.34722C13.4852 1.57535 12.9321 1.7295 12.3507 1.79917C12.9438 1.44402 13.3988 0.880472 13.6134 0.209636C13.0585 0.538888 12.4438 0.77812 11.7896 0.906368C11.2655 0.348983 10.5194 0 9.69321 0C8.10737 0 6.82119 1.28618 6.82119 2.87325C6.82119 3.09768 6.84709 3.31595 6.89518 3.52682C4.50718 3.40659 2.3917 2.26284 0.974808 0.525324C0.728177 0.950762 0.586365 1.44402 0.586365 1.96935C0.586365 2.96574 1.09381 3.84559 1.86391 4.36043C1.39285 4.34502 0.950145 4.21615 0.562935 4.00097V4.03796C0.562935 5.42958 1.55254 6.59059 2.86708 6.85449C2.62539 6.91984 2.37197 6.95437 2.11054 6.95437C1.92557 6.95437 1.74491 6.93711 1.56981 6.90381C1.93544 8.04448 2.99595 8.87563 4.25315 8.89782C3.26971 9.66854 2.03101 10.1279 0.685634 10.1279C0.453801 10.1279 0.225051 10.1143 0 10.0878C1.27138 10.9035 2.78076 11.3783 4.40236 11.3783C9.68643 11.3783 12.5751 7.00185 12.5751 3.2062C12.5751 3.08289 12.572 2.95834 12.5665 2.83502C13.1275 2.42931 13.6146 1.92434 13.9988 1.34907L14 1.34722Z" fill="#D1D1D1"/>
</svg>
